<svg width="346" height="353" viewBox="0 0 346 353" fill="none" xmlns="http://www.w3.org/2000/svg">
<path d="M157.589 0.700439C252.644 -7.90024 336.55 63.7006 345.02 160.651C353.49 257.601 283.328 343.212 188.281 351.897C93.1733 360.589 9.17213 288.971 0.693426 191.96C-7.78528 94.9499 62.4718 9.30646 157.589 0.700439Z" fill="#597DC9"/>
<path d="M166.259 6.0703C258.486 2.32602 336.218 75.5441 339.885 169.606C343.553 263.668 271.767 342.954 179.549 346.695C87.3315 350.435 9.59989 277.218 5.93248 183.158C2.25634 89.0985 74.0416 9.8144 166.259 6.0703Z" fill="#F8F7F5"/>
<path d="M112.576 125.847C139.557 122.555 166.19 134.3 182.317 156.604C198.445 178.907 201.589 208.329 190.534 233.65C179.488 258.969 155.956 276.282 128.913 278.987C87.7157 283.106 50.9455 252.632 46.466 210.66C41.9866 168.688 71.4744 130.861 112.576 125.847Z" fill="#597DC9"/>
<path d="M114.348 155.886C139.077 151.7 162.479 168.664 166.74 193.862C170.992 219.058 154.506 243.033 129.83 247.532C104.935 252.069 81.1756 235.074 76.8883 209.654C72.5921 184.236 89.401 160.109 114.348 155.886Z" fill="#F8F7F5"/>
<path d="M62.7948 70.7437C126.625 68.2463 193.005 73.4075 255.063 89.2749C273.837 94.0763 292.218 100.404 310.572 106.637C320.168 126.166 325.504 148.752 327.215 170.441L293.711 158.136C268.449 149.454 242.803 141.979 216.852 135.735C201.746 132.134 186.369 129.389 171.35 125.436C155.283 121.206 142.081 113.383 124.914 112.834C111.44 112.402 100.307 117.398 87.3141 118.964C68.1562 121.271 47.7846 120.9 28.4434 121.816C33.3856 107.974 40.4149 94.9998 49.2604 83.3558C52.2554 79.3364 57.6343 71.4793 62.7948 70.7437Z" fill="#597DC9"/>
<path d="M208.81 201.627C243.615 212.324 278.954 226.386 312.528 240.605C303.159 260.587 291.37 276.547 275.295 291.379L267.113 298.232C238.647 286.579 207.718 278.811 178.309 269.976C179.086 269.302 179.837 268.609 180.58 267.897C199.414 249.792 208.103 227.787 208.81 201.627Z" fill="#597DC9"/>
<path d="M157.327 21.6558C169.08 19.7464 183.435 20.894 195.206 22.7199C236.141 29.069 275.775 53.3791 300.391 87.4571C290.969 85.365 281.643 81.9147 272.352 79.2045C260.32 75.7908 248.209 72.654 236.036 69.796C191.425 60.277 121.744 52.1874 75.9888 56.0919C99.2681 36.1428 127.167 24.7194 157.327 21.6558Z" fill="#597DC9"/>
<path d="M33.0715 239.663C35.1061 239.551 40.2666 238.916 41.917 240.014C44.9994 242.065 48.3524 249.598 50.2996 252.899C60.612 270.336 78.4863 282.451 97.4433 288.143C119.701 294.827 140.483 292.418 160.75 281.064C191.879 288.502 222.799 298.277 253.177 308.452C250.383 310.752 247.222 312.594 244.175 314.533C241.817 315.78 239.451 317.006 237.076 318.209C202.951 335.409 161.256 337.093 125.394 324.614C85.3059 310.664 51.6269 278.142 33.0715 239.663Z" fill="#597DC9"/>
<path d="M188.037 144.031C200.541 145.046 213.761 149.392 225.881 152.691C260.398 162.083 293.588 173.408 327.198 185.619C326.246 197.411 323.749 208.636 320.893 220.079C319.994 222.691 319.557 225.153 317.339 226.801C302.643 222.29 288.367 215.207 273.985 209.646C252.391 201.294 230.361 194.042 208.435 186.641C204.584 170.147 197.782 157.507 188.037 144.031Z" fill="#597DC9"/>
<path d="M60.9785 134.829C62.4804 134.602 63.7378 134.604 65.2484 134.745C63.0392 137.865 59.5378 140.395 56.8658 143.152C49.5135 150.742 44.2394 160.149 40.5196 170.055L26.5136 167.056L19.074 165.128C20.1742 155.6 21.6324 146.118 23.4487 136.705C35.9528 135.927 48.4569 135.301 60.9785 134.829Z" fill="#597DC9"/>
<path d="M18.2271 180.137L36.3458 183.185C34.2501 198.698 34.1278 210.362 37.6119 225.74L27.7972 227.06C22.0341 211.692 19.3447 196.481 18.2271 180.137Z" fill="#597DC9"/>
</svg>
